<svg width="100" height="100" viewBox="0 0 100 100" xmlns="http://www.w3.org/2000/svg">
    <!-- 身体 -->
    <path d="M20 40 C20 20 40 10 50 10 C60 10 80 20 80 40 C80 70 60 90 50 90 C40 90 20 70 20 40" fill="#7B62A3"/>
    
    <!-- 眼睛 -->
    <circle cx="35" cy="35" r="10" fill="#FF0000"/>
    <circle cx="65" cy="35" r="10" fill="#FF0000"/>
    <circle cx="35" cy="35" r="4" fill="#FFFFFF"/>
    <circle cx="65" cy="35" r="4" fill="#FFFFFF"/>
    
    <!-- 嘴巴 -->
    <path d="M35 55 Q50 65 65 55" stroke="#FFFFFF" stroke-width="4" fill="none"/>
    
    <!-- 尖牙 -->
    <path d="M40 55 L35 65 L45 55" fill="#FFFFFF"/>
    <path d="M60 55 L55 65 L65 55" fill="#FFFFFF"/>
    
    <!-- 手 -->
    <path d="M25 50 Q15 60 20 70" stroke="#7B62A3" stroke-width="8" fill="none"/>
    <path d="M75 50 Q85 60 80 70" stroke="#7B62A3" stroke-width="8" fill="none"/>
</svg>