<?xml version="1.0" encoding="UTF-8"?>
<svg width="100" height="100" viewBox="0 0 100 100" xmlns="http://www.w3.org/2000/svg">
    <!-- 皮卡丘的身体（黄色椭圆） -->
    <ellipse cx="50" cy="55" rx="35" ry="30" fill="#FFD700"/>
    
    <!-- 耳朵（黑色尖端） -->
    <path d="M25 35 L15 15 L35 30 Z" fill="#FFD700" stroke="#000" stroke-width="2"/>
    <path d="M75 35 L85 15 L65 30 Z" fill="#FFD700" stroke="#000" stroke-width="2"/>
    <path d="M25 35 L15 15 L20 20" fill="#000"/>
    <path d="M75 35 L85 15 L80 20" fill="#000"/>
    
    <!-- 脸颊（红色圆圈） -->
    <circle cx="25" cy="55" r="8" fill="#FF6B6B"/>
    <circle cx="75" cy="55" r="8" fill="#FF6B6B"/>
    
    <!-- 眼睛 -->
    <circle cx="35" cy="45" r="5" fill="#000"/>
    <circle cx="65" cy="45" r="5" fill="#000"/>
    <circle cx="37" cy="43" r="2" fill="#FFF"/>
    <circle cx="67" cy="43" r="2" fill="#FFF"/>
    
    <!-- 鼻子（小黑点） -->
    <circle cx="50" cy="50" r="2" fill="#000"/>
    
    <!-- 嘴巴 -->
    <path d="M45 55 Q50 60 55 55" fill="none" stroke="#000" stroke-width="2"/>
    
    <!-- 尾巴（闪电形状） -->
    <path d="M85 55 L95 45 L90 50 L100 40" fill="none" stroke="#964B00" stroke-width="4"/>
    
    <!-- 身体花纹 -->
    <path d="M30 70 L70 70" stroke="#964B00" stroke-width="2"/>
    <path d="M35 75 L65 75" stroke="#964B00" stroke-width="2"/>
</svg> 